<svg width="37" height="36" viewBox="0 0 37 36" fill="none" xmlns="http://www.w3.org/2000/svg">
<g clip-path="url(#clip0_21_100)">
<path d="M18.5 32.4625C10.0861 32.4625 3.26562 25.9982 3.26562 18.0235C3.26562 11.5577 7.7491 6.08531 13.9297 4.24578V7.31263C11.3108 8.32054 9.14274 10.1596 7.79642 12.5152C6.4501 14.8708 6.00916 17.5966 6.54902 20.2263C7.08888 22.8559 8.57601 25.2261 10.756 26.9314C12.936 28.6367 15.6734 29.5711 18.5 29.5747C20.928 29.5747 23.3007 28.8875 25.3141 27.6013C27.3275 26.315 28.8898 24.4883 29.8009 22.3552H33.0366C31.0958 28.2131 25.322 32.4625 18.5 32.4625ZM33.6582 19.4674H16.9766V3.65667C17.4778 3.60902 17.9866 3.58447 18.5 3.58447C26.9139 3.58447 33.7344 10.0488 33.7344 18.0235C33.7344 18.5101 33.7085 18.9924 33.6582 19.4674ZM20.0234 6.5618V16.5796H30.593C30.254 14.0349 29.0313 11.6694 27.1177 9.85569C25.2041 8.042 22.7083 6.88319 20.0234 6.5618Z" fill="#AFAFAF"/>
</g>
<defs>
<clipPath id="clip0_21_100">
<rect width="36.5625" height="34.6537" fill="white" transform="translate(0.21875 0.696777)"/>
</clipPath>
</defs>
</svg>
