<svg width="39" height="40" viewBox="0 0 39 40" fill="none" xmlns="http://www.w3.org/2000/svg">
<g clip-path="url(#clip0_21_104)">
<path d="M5.42738 28.5185C4.74045 27.3195 4.20647 26.0375 3.83813 24.7033C4.63976 24.2917 5.31298 23.6644 5.78331 22.8906C6.25364 22.1168 6.50275 21.2268 6.50309 20.319C6.50343 19.4112 6.25497 18.521 5.78521 17.7469C5.31546 16.9728 4.6427 16.3449 3.84138 15.9328C4.57594 13.2517 5.97457 10.8036 7.90551 8.81893C8.65966 9.31384 9.53477 9.58848 10.434 9.61246C11.3332 9.63644 12.2214 9.40882 13.0004 8.95479C13.7794 8.50077 14.4188 7.83805 14.8477 7.03996C15.2767 6.24188 15.4785 5.33956 15.4309 4.43286C18.0993 3.73677 20.8994 3.73789 23.5673 4.43614C23.5201 5.34282 23.7223 6.24501 24.1516 7.04286C24.5809 7.84072 25.2205 8.50313 25.9996 8.95681C26.7787 9.41048 27.667 9.63773 28.5662 9.61339C29.4654 9.58906 30.3403 9.31409 31.0943 8.81893C32.0351 9.78668 32.8704 10.8873 33.5724 12.1159C34.276 13.3444 34.8025 14.6255 35.1616 15.9311C34.36 16.3427 33.6868 16.97 33.2165 17.7438C32.7461 18.5176 32.497 19.4076 32.4967 20.3154C32.4963 21.2232 32.7448 22.1134 33.2146 22.8875C33.6843 23.6616 34.3571 24.2895 35.1584 24.7016C34.4238 27.3827 33.0252 29.8308 31.0943 31.8154C30.3401 31.3205 29.465 31.0459 28.5658 31.0219C27.6666 30.9979 26.7783 31.2256 25.9993 31.6796C25.2204 32.1336 24.581 32.7963 24.1521 33.5944C23.7231 34.3925 23.5213 35.2948 23.5689 36.2015C20.9005 36.8976 18.1004 36.8965 15.4325 36.1982C15.4797 35.2916 15.2775 34.3894 14.8482 33.5915C14.4189 32.7937 13.7793 32.1312 13.0002 31.6776C12.221 31.2239 11.3327 30.9966 10.4336 31.021C9.53441 31.0453 8.65945 31.3203 7.90551 31.8154C6.94512 30.8263 6.11248 29.7185 5.42738 28.5185ZM14.6249 28.84C16.3565 29.8482 17.6585 31.4661 18.2811 33.3835C19.092 33.4606 19.9061 33.4623 20.717 33.3852C21.34 31.4675 22.6426 29.8495 24.3749 28.8416C26.1059 27.8307 28.1457 27.5007 30.103 27.9149C30.5743 27.2457 30.9805 26.5322 31.3185 25.7858C29.9851 24.2824 29.2484 22.3351 29.2499 20.3172C29.2499 18.2505 30.0136 16.3199 31.3185 14.8485C30.9781 14.1025 30.5701 13.3897 30.0998 12.7195C28.1437 13.1333 26.1052 12.8039 24.3749 11.7944C22.6432 10.7862 21.3413 9.16828 20.7186 7.25083C19.9078 7.17374 19.0936 7.1721 18.2828 7.24919C17.6597 9.1669 16.3571 10.7849 14.6249 11.7927C12.8939 12.8036 10.854 13.1337 8.89676 12.7195C8.42643 13.3892 8.01947 14.102 7.68126 14.8485C9.01469 16.3519 9.75132 18.2993 9.74988 20.3172C9.74988 22.3839 8.98614 24.3145 7.68126 25.7858C8.02165 26.5319 8.42964 27.2446 8.90001 27.9149C10.8561 27.501 12.8946 27.8305 14.6249 28.84ZM19.4999 25.238C18.207 25.238 16.967 24.7195 16.0527 23.7967C15.1385 22.8739 14.6249 21.6223 14.6249 20.3172C14.6249 19.0121 15.1385 17.7605 16.0527 16.8377C16.967 15.9148 18.207 15.3964 19.4999 15.3964C20.7928 15.3964 22.0328 15.9148 22.947 16.8377C23.8613 17.7605 24.3749 19.0121 24.3749 20.3172C24.3749 21.6223 23.8613 22.8739 22.947 23.7967C22.0328 24.7195 20.7928 25.238 19.4999 25.238ZM19.4999 21.9575C19.9309 21.9575 20.3442 21.7846 20.6489 21.477C20.9537 21.1694 21.1249 20.7522 21.1249 20.3172C21.1249 19.8822 20.9537 19.465 20.6489 19.1573C20.3442 18.8497 19.9309 18.6769 19.4999 18.6769C19.0689 18.6769 18.6556 18.8497 18.3508 19.1573C18.0461 19.465 17.8749 19.8822 17.8749 20.3172C17.8749 20.7522 18.0461 21.1694 18.3508 21.477C18.6556 21.7846 19.0689 21.9575 19.4999 21.9575Z" fill="#AFAFAF"/>
</g>
<defs>
<clipPath id="clip0_21_104">
<rect width="39" height="39.3664" fill="white" transform="translate(0 0.633789)"/>
</clipPath>
</defs>
</svg>
