<svg width="30" height="36" viewBox="0 0 30 36" fill="none" xmlns="http://www.w3.org/2000/svg">
<path d="M4.73684 28.8H7.89474V32.4H26.8421V3.6H7.89474V7.2H4.73684V1.8C4.73684 1.32261 4.9032 0.864773 5.19931 0.527208C5.49542 0.189642 5.89703 0 6.31579 0H28.4211C28.8398 0 29.2414 0.189642 29.5375 0.527208C29.8336 0.864773 30 1.32261 30 1.8V34.2C30 34.6774 29.8336 35.1352 29.5375 35.4728C29.2414 35.8104 28.8398 36 28.4211 36H6.31579C5.89703 36 5.49542 35.8104 5.19931 35.4728C4.9032 35.1352 4.73684 34.6774 4.73684 34.2V28.8ZM7.89474 16.2H18.9474V19.8H7.89474V25.2L0 18L7.89474 10.8V16.2Z" fill="black"/>
</svg>
