<svg width="32" height="28" viewBox="0 0 32 28" fill="none" xmlns="http://www.w3.org/2000/svg">
<path fill-rule="evenodd" clip-rule="evenodd" d="M16.1094 0.17334C7.69569 0.17334 0.875 6.21119 0.875 13.6594C0.875 21.1075 7.69569 27.1454 16.1094 27.1454C24.5232 27.1454 31.3438 21.1075 31.3438 13.6594C31.3438 6.21119 24.5232 0.17334 16.1094 0.17334ZM16.1094 24.4482C9.3892 24.4482 3.92188 19.6083 3.92188 13.6594C3.92188 7.71043 9.3892 2.87055 16.1094 2.87055C22.8296 2.87055 28.2969 7.71043 28.2969 13.6594C28.2969 19.6083 22.8296 24.4482 16.1094 24.4482ZM18.017 8.26497C18.017 9.24276 17.2128 9.95072 16.1249 9.95072C14.9929 9.95072 14.2084 9.24276 14.2084 8.24626C14.2084 7.28851 15.0141 6.57921 16.1249 6.57921C17.2128 6.57921 18.017 7.28851 18.017 8.26497ZM14.5893 12.3108H17.6361V20.4024H14.5893V12.3108Z" fill="#AFAFAF"/>
</svg>
