<svg width="30" height="30" viewBox="0 0 30 30" fill="none" xmlns="http://www.w3.org/2000/svg">
<g clip-path="url(#clip0_21_76)">
<path d="M14.9999 16.2249C18.9556 16.2249 22.1624 13.0181 22.1624 9.0624C22.1624 5.10666 18.9556 1.8999 14.9999 1.8999C11.0442 1.8999 7.8374 5.10666 7.8374 9.0624C7.8374 13.0181 11.0442 16.2249 14.9999 16.2249Z" stroke="#020202" stroke-width="3" stroke-miterlimit="10"/>
<path d="M1.875 29.35L2.3375 26.7875C2.88387 23.8281 4.44967 21.1536 6.76289 19.2285C9.0761 17.3035 11.9906 16.2497 15 16.25C18.013 16.2507 20.9303 17.3081 23.2441 19.2382C25.5578 21.1682 27.1213 23.8485 27.6625 26.8125L28.125 29.375" stroke="#020202" stroke-width="3" stroke-miterlimit="10"/>
</g>
<defs>
<clipPath id="clip0_21_76">
<rect width="30" height="30" fill="white"/>
</clipPath>
</defs>
</svg>
