<svg width="27" height="32" viewBox="0 0 27 32" fill="none" xmlns="http://www.w3.org/2000/svg">
<path d="M26.8069 10.3085C26.6633 13.1719 25.2545 15.9121 22.8128 18.077C22.0898 18.6964 21.5382 19.4226 21.1918 20.2112V22.4243C21.1918 22.9621 20.914 23.4778 20.4195 23.858C19.925 24.2382 19.2543 24.4518 18.555 24.4518H8.25747C7.55813 24.4518 6.88744 24.2382 6.39294 23.858C5.89844 23.4778 5.62063 22.9621 5.62063 22.4243V20.2112C5.27409 19.4226 4.7226 18.6965 3.99967 18.077C1.55601 15.9127 0.145154 13.1724 4.77581e-09 10.3085C-8.25465e-05 7.92946 1.07003 5.62365 3.02884 3.78212C4.98765 1.94059 7.71457 0.676704 10.7471 0.204826C13.7797 -0.267052 16.9311 0.0821264 19.667 1.19314C22.4029 2.30415 24.5548 4.1086 25.7577 6.30045C26.4571 7.56964 26.8158 8.93435 26.8125 10.3127L26.8069 10.3085ZM24.1701 10.3085C24.1701 8.11344 23.036 6.00829 21.0174 4.45616C18.9988 2.90403 16.261 2.03205 13.4062 2.03205C10.5515 2.03205 7.81366 2.90403 5.79505 4.45616C3.77643 6.00829 2.64239 8.11344 2.64239 10.3085C2.64239 15.3516 8.25747 17.584 8.25747 20.2112V22.4243H18.555V20.2112C18.555 17.584 24.1701 15.3516 24.1701 10.3085ZM19.8734 26.8315C19.8738 26.9648 19.84 27.0968 19.7739 27.2201C19.7078 27.3433 19.6107 27.4553 19.4883 27.5497C19.3658 27.644 19.2203 27.7189 19.0602 27.77C18.9001 27.8211 18.7284 27.8473 18.555 27.8473H8.25747C7.9078 27.8473 7.57245 27.7405 7.3252 27.5504C7.07795 27.3603 6.93905 27.1025 6.93905 26.8336C6.93905 26.5647 7.07795 26.3069 7.3252 26.1168C7.57245 25.9267 7.9078 25.8199 8.25747 25.8199H18.555C18.9042 25.8199 19.2391 25.9264 19.4863 26.116C19.7335 26.3057 19.8727 26.563 19.8734 26.8315ZM18.097 29.5248C18.1419 29.6247 18.1452 29.7329 18.1064 29.8342C18.0676 29.9356 17.9887 30.0252 17.8805 30.0904C16.5809 30.8664 14.9823 31.2876 13.3368 31.2876C11.6914 31.2876 10.0928 30.8664 8.79316 30.0904C8.68401 30.026 8.60388 29.9368 8.56404 29.8356C8.52421 29.7343 8.52669 29.626 8.57112 29.5258C8.61555 29.4257 8.6997 29.3388 8.81173 29.2774C8.92376 29.2159 9.05802 29.183 9.19562 29.1834H17.4753C17.6126 29.1833 17.7466 29.2161 17.8585 29.2773C17.9705 29.3386 18.052 29.4251 18.097 29.5248Z" fill="#AFAFAF"/>
</svg>
